<!DOCTYPE svg PUBLIC "-//W3C//DTD SVG 1.1//EN" "http://www.w3.org/Graphics/SVG/1.1/DTD/svg11.dtd">
<!-- Uploaded to: SVG Repo, www.svgrepo.com, Transformed by: SVG Repo Mixer Tools -->
<svg version="1.1" id="Layer_1" xmlns="http://www.w3.org/2000/svg" xmlns:xlink="http://www.w3.org/1999/xlink" viewBox="0 0 512 512" xml:space="preserve" width="800px" height="800px" fill="#b69663" stroke="#b69663">
<g id="SVGRepo_bgCarrier" stroke-width="0"/>
<g id="SVGRepo_tracerCarrier" stroke-linecap="round" stroke-linejoin="round"/>
<g id="SVGRepo_iconCarrier"> <g> <path style="fill:#b69663;" d="M0,368.44v39.581h512V368.44H0z M496.441,392.462H15.559v-8.462h480.881V392.462z"/> <rect x="159.919" y="344.422" style="fill:#b69663;" width="112.1" height="15.559"/> <rect x="127.887" y="344.422" style="fill:#b69663;" width="16.014" height="15.559"/> <path style="fill:#b69663;" d="M175.928,215.851c79.597,0,144.355,64.758,144.355,144.355h15.559 c0-85.569-67.557-155.652-152.135-159.723v-16.661h8.234v-15.559h-32.028v15.559h8.234v16.661 c-84.579,4.071-152.135,74.154-152.135,159.723h15.559C31.573,280.609,96.331,215.851,175.928,215.851z"/> <path style="fill:#b69663;" d="M416.369,360.206h15.559v-56.277h48.497v56.277h15.559V240.328h-32.028v-28.093l20.557-13.705 l-8.63-12.945l-27.486,18.324v36.419h-32.028L416.369,360.206L416.369,360.206z M431.928,255.887h16.469v24.249h15.559v-24.249 h16.469v32.483h-48.497L431.928,255.887L431.928,255.887z"/> <path style="fill:#b69663;" d="M296.262,247.879H399.9V144.241H261.239l35.023,35.023V247.879z M384.341,159.801v72.519h-72.519 v-59.499l-13.019-13.019h85.538V159.801z"/> <polygon style="fill:#b69663;" points="431.928,144.241 408.134,144.241 408.134,159.801 416.369,159.801 416.369,208.298 408.134,208.298 408.134,223.857 431.928,223.857 "/> <polygon style="fill:#b69663;" points="384.114,120.22 351.857,120.22 351.857,103.979 336.298,103.979 336.298,120.22 304.042,120.22 304.042,135.779 384.114,135.779 "/> <rect x="312.048" y="256.345" style="fill:#b69663;" width="72.061" height="15.559"/> <polygon style="fill:#b69663;" points="399.9,360.206 399.9,280.363 328.064,280.363 328.064,295.922 384.341,295.922 384.341,360.206 "/> </g> </g>
</svg>