<?xml version="1.0" standalone="no"?>
<!DOCTYPE svg PUBLIC "-//W3C//DTD SVG 20010904//EN"
 "http://www.w3.org/TR/2001/REC-SVG-20010904/DTD/svg10.dtd">
<svg version="1.0" xmlns="http://www.w3.org/2000/svg"
 width="1000.000000pt" height="1000.000000pt" viewBox="0 0 1000.000000 1000.000000"
 preserveAspectRatio="xMidYMid meet">

<g transform="translate(0.000000,1000.000000) scale(0.100000,-0.100000)"
fill="#000000" stroke="none">
<path d="M923 7149 c-12 -6 -27 -24 -33 -40 -17 -41 3 -5043 20 -5080 7 -15
24 -32 38 -39 19 -8 970 -14 3864 -22 3663 -10 3841 -10 3878 7 22 10 43 27
47 39 13 33 3 5045 -9 5082 -7 20 -22 35 -42 43 -43 18 -7729 27 -7763 10z
m6933 -155 l721 -6 6 -1216 c4 -668 7 -1764 7 -2435 l0 -1220 -3187 7 c-1754
3 -3447 9 -3764 12 l-577 7 -6 181 c-3 99 -9 1195 -12 2433 l-6 2253 3048 -5
c1677 -3 3373 -8 3770 -11z"/>
<path d="M1609 6548 c-15 -6 -31 -24 -37 -43 -9 -23 -12 -370 -12 -1303 0
-1157 1 -1274 16 -1306 9 -19 28 -39 41 -45 17 -8 319 -11 1024 -11 1086 0
1041 -2 1067 55 9 20 12 335 12 1306 0 1379 2 1321 -49 1349 -27 14 -2026 12
-2062 -2z m1950 -1010 c0 -835 -1 -861 -18 -803 -29 102 -66 169 -129 236 -82
88 -173 132 -284 137 l-77 4 -58 -47 c-108 -89 -239 -135 -384 -135 -123 0
-228 39 -357 134 -54 40 -69 46 -111 46 -68 0 -148 -17 -199 -42 -63 -30 -154
-123 -190 -193 l-31 -60 -1 793 0 792 920 0 920 0 -1 -862z m1 -1478 l0 -60
-40 0 -40 0 35 51 c19 28 35 55 35 60 0 5 2 9 5 9 3 0 5 -27 5 -60z m-1815
-40 c18 -19 17 -20 -3 -20 -15 0 -22 6 -22 20 0 11 2 20 3 20 2 0 12 -9 22
-20z"/>
<path d="M2493 6290 c-355 -64 -573 -407 -468 -738 76 -241 304 -402 571 -403
338 -1 604 250 604 571 0 255 -173 479 -428 554 -68 20 -211 28 -279 16z"/>
<path d="M4405 6526 c-33 -33 -33 -79 0 -111 l24 -25 1643 -2 c904 -2 1716 -3
1805 -3 155 0 164 1 185 22 30 30 30 86 0 116 l-23 22 -1805 3 -1805 2 -24
-24z"/>
<path d="M5238 5923 l-797 -3 -20 -26 c-36 -46 -26 -99 22 -119 24 -10 396
-11 1806 -8 977 2 1786 6 1798 9 23 4 53 50 53 79 0 9 -13 30 -29 46 l-29 29
-1004 -2 c-552 -2 -1362 -4 -1800 -5z"/>
<path d="M4433 5270 c-47 -19 -58 -92 -19 -129 l23 -22 1634 -9 c2224 -13
1965 -15 1994 15 32 31 33 78 2 109 l-24 24 -1179 6 c-648 3 -1456 8 -1794 10
-338 2 -625 0 -637 -4z"/>
<path d="M4447 4641 c-56 -29 -55 -104 2 -133 31 -16 151 -17 1610 -20 867 -2
1667 -3 1777 -3 181 0 204 2 222 18 11 10 22 29 24 42 6 31 -15 80 -38 89 -11
5 -793 10 -1739 12 -946 3 -1744 6 -1773 8 -35 2 -64 -3 -85 -13z"/>
<path d="M4441 3988 c-32 -12 -54 -53 -46 -88 14 -66 -129 -61 1852 -67 l1799
-6 22 28 c42 53 17 119 -50 129 -52 8 -3555 13 -3577 4z"/>
<path d="M5697 3360 l-1269 -5 -19 -24 c-27 -33 -25 -82 6 -111 l25 -23 1792
7 c1947 8 1830 4 1844 61 10 39 -4 73 -36 90 -25 13 -101 15 -552 13 -288 -2
-1094 -5 -1791 -8z"/>
<path d="M4438 2704 c-31 -16 -44 -51 -34 -89 14 -56 -96 -52 1837 -60 l1786
-7 26 24 c41 36 38 104 -5 125 -16 8 -534 13 -1803 17 -1563 5 -1783 3 -1807
-10z"/>
</g>
</svg>
