<?xml version="1.0" standalone="no"?>
<!DOCTYPE svg PUBLIC "-//W3C//DTD SVG 20010904//EN"
 "http://www.w3.org/TR/2001/REC-SVG-20010904/DTD/svg10.dtd">
<svg version="1.0" xmlns="http://www.w3.org/2000/svg"
 width="1000.000000pt" height="1000.000000pt" viewBox="0 0 1000.000000 1000.000000"
 preserveAspectRatio="xMidYMid meet">

<g transform="translate(0.000000,1000.000000) scale(0.100000,-0.100000)"
fill="#000000" stroke="none">
<path d="M1721 6910 l-544 -5 1224 -1209 c1863 -1842 1986 -1963 2246 -2220
l242 -240 83 79 c107 102 1180 1160 2556 2520 l1084 1070 -64 6 c-74 8 -6026
7 -6827 -1z"/>
<path d="M8043 5452 c-386 -411 -776 -827 -868 -926 l-167 -178 154 -157 c516
-524 1501 -1532 1546 -1582 30 -32 59 -59 66 -59 10 0 11 199 8 943 -8 1802
-17 2700 -27 2703 -5 2 -326 -333 -712 -744z"/>
<path d="M997 5303 c1 -483 5 -1298 9 -1812 l6 -934 342 344 c188 189 580 586
872 881 l529 538 -75 77 c-42 43 -352 373 -690 733 -701 747 -982 1044 -990
1048 -3 1 -4 -393 -3 -875z"/>
<path d="M5744 3195 c-434 -382 -794 -694 -799 -695 -6 0 -392 302 -859 670
-467 369 -854 670 -860 670 -12 0 -2066 -2051 -2066 -2062 0 -5 1695 -8 3768
-8 l3767 1 -315 311 c-173 171 -655 648 -1072 1059 -416 412 -761 749 -766
749 -5 0 -364 -313 -798 -695z"/>
</g>
</svg>
