<svg id="svg" version="1.1" xmlns="http://www.w3.org/2000/svg" xmlns:xlink="http://www.w3.org/1999/xlink" width="400" height="400" viewBox="0, 0, 400,400"><g id="svgg"><path id="path0" d="M188.752 38.564 C 188.668 38.638,187.051 38.817,185.158 38.961 C 171.365 40.011,149.916 47.621,141.156 54.571 C 140.581 55.027,139.699 55.670,139.194 56.000 C 134.564 59.029,126.390 66.839,120.200 74.147 C 112.647 83.066,105.121 98.773,103.404 109.200 C 103.278 109.970,103.006 111.140,102.800 111.800 C 102.245 113.579,100.870 121.788,100.588 125.000 C 100.453 126.540,100.250 128.340,100.136 129.000 C 99.826 130.810,99.684 165.350,99.959 172.091 L 100.200 177.982 99.000 178.228 C 94.467 179.155,88.607 182.471,83.885 186.782 C 82.339 188.193,79.140 192.969,77.685 196.039 C 75.049 201.599,74.705 203.206,74.442 211.200 C 74.105 221.416,74.223 352.974,74.571 355.200 C 75.965 364.125,81.477 372.673,89.405 378.204 C 91.885 379.933,95.507 381.280,102.000 382.887 L 107.000 384.125 192.600 384.143 L 278.200 384.162 282.771 383.047 C 292.455 380.684,294.813 379.500,299.972 374.400 C 309.633 364.851,310.640 360.685,310.559 330.600 C 310.537 322.240,310.495 290.849,310.467 260.843 C 310.407 196.880,310.775 201.173,304.482 191.200 C 300.860 185.460,290.179 178.000,285.582 178.000 C 284.815 178.000,284.799 177.522,284.754 152.700 C 284.729 138.785,284.661 126.950,284.602 126.400 C 284.544 125.850,284.374 123.525,284.225 121.232 C 283.983 117.508,283.104 112.368,282.032 108.400 C 280.892 104.183,280.293 102.294,279.179 99.400 C 278.501 97.640,277.748 95.660,277.504 95.000 C 276.880 93.308,273.652 86.910,272.459 85.000 C 269.288 79.921,266.915 76.494,264.149 73.000 C 263.801 72.560,262.900 71.390,262.147 70.400 C 261.394 69.410,259.207 67.066,257.289 65.191 C 254.199 62.171,252.766 60.908,249.476 58.307 C 248.994 57.926,248.420 57.467,248.200 57.286 C 238.494 49.312,217.821 40.954,203.052 39.033 C 199.424 38.561,189.136 38.224,188.752 38.564 M202.690 80.342 C 209.910 81.633,218.404 85.287,222.322 88.787 C 222.699 89.124,223.841 90.070,224.858 90.889 C 228.246 93.616,231.834 97.457,234.696 101.420 C 236.260 103.585,239.904 111.336,241.232 115.319 C 243.744 122.859,243.672 121.902,243.880 150.300 L 244.072 176.400 235.136 176.437 C 221.214 176.494,162.600 176.476,150.769 176.410 L 140.138 176.352 140.261 174.276 C 140.328 173.134,140.465 162.840,140.566 151.400 C 140.667 139.960,140.835 130.150,140.939 129.600 C 141.044 129.050,141.251 126.890,141.399 124.800 C 142.456 109.860,148.553 99.006,160.876 90.124 C 174.350 80.412,186.799 77.500,202.690 80.342 M197.943 244.041 C 216.420 248.199,221.786 275.852,206.041 285.776 L 204.282 286.884 204.503 298.892 C 204.835 316.983,204.274 319.290,198.587 323.212 C 195.516 325.331,192.624 325.224,189.142 322.865 C 183.724 319.193,183.362 317.726,183.531 300.100 C 183.612 291.692,183.517 286.400,183.285 286.400 C 182.167 286.400,178.082 282.973,176.171 280.433 C 166.946 268.170,174.592 247.985,189.888 244.221 C 194.053 243.196,194.175 243.193,197.943 244.041 " stroke="none" fill="#545454" fill-rule="evenodd"></path><path id="path1" d="M310.093 282.000 C 310.093 282.770,310.175 283.085,310.276 282.700 C 310.376 282.315,310.376 281.685,310.276 281.300 C 310.175 280.915,310.093 281.230,310.093 282.000 " stroke="none" fill="#585454" fill-rule="evenodd"></path><path id="path2" d="M310.093 282.000 C 310.093 282.770,310.175 283.085,310.276 282.700 C 310.376 282.315,310.376 281.685,310.276 281.300 C 310.175 280.915,310.093 281.230,310.093 282.000 " stroke="none" fill="#585454" fill-rule="evenodd"></path><path id="path3" d="M310.093 282.000 C 310.093 282.770,310.175 283.085,310.276 282.700 C 310.376 282.315,310.376 281.685,310.276 281.300 C 310.175 280.915,310.093 281.230,310.093 282.000 " stroke="none" fill="#585454" fill-rule="evenodd"></path><path id="path4" d="M310.093 282.000 C 310.093 282.770,310.175 283.085,310.276 282.700 C 310.376 282.315,310.376 281.685,310.276 281.300 C 310.175 280.915,310.093 281.230,310.093 282.000 " stroke="none" fill="#585454" fill-rule="evenodd"></path></g></svg>