<svg id="svg" version="1.1" xmlns="http://www.w3.org/2000/svg" xmlns:xlink="http://www.w3.org/1999/xlink" width="400" height="400" viewBox="0, 0, 400,400"><g id="svgg"><path id="path0" d="M102.414 84.043 C 94.327 84.728,92.504 85.545,86.813 91.031 C 77.520 99.990,76.084 104.903,77.650 122.400 C 79.279 140.602,87.225 173.720,94.590 193.000 C 95.095 194.320,96.185 197.200,97.014 199.400 C 97.843 201.600,98.919 204.300,99.405 205.400 C 99.890 206.500,100.538 208.021,100.844 208.781 C 102.337 212.490,107.590 222.703,110.112 226.800 C 113.558 232.398,120.840 243.474,121.859 244.668 C 122.267 245.145,122.960 246.035,123.400 246.646 C 125.751 249.910,130.238 255.853,130.613 256.200 C 130.851 256.420,131.572 257.320,132.216 258.200 C 133.345 259.743,134.542 261.220,135.421 262.153 C 135.652 262.399,136.645 263.590,137.627 264.800 C 140.076 267.816,143.443 271.656,147.986 276.614 C 152.776 281.842,169.224 297.991,172.800 300.977 C 174.890 302.722,176.690 304.261,176.800 304.396 C 176.910 304.531,177.720 305.173,178.600 305.821 C 179.479 306.470,180.559 307.334,181.000 307.743 C 181.440 308.152,182.430 308.916,183.200 309.442 C 183.970 309.967,185.161 310.803,185.847 311.299 C 188.912 313.513,198.802 319.945,201.200 321.283 C 203.141 322.366,205.122 323.493,207.500 324.867 C 211.386 327.113,214.436 328.715,222.413 332.698 C 227.150 335.064,232.100 337.482,233.413 338.072 C 234.726 338.661,237.028 339.696,238.528 340.372 C 240.028 341.047,241.335 341.600,241.432 341.600 C 241.528 341.600,243.345 342.342,245.468 343.250 C 251.026 345.624,260.076 348.792,267.800 351.067 C 268.900 351.390,270.340 351.815,271.000 352.010 C 273.389 352.717,284.940 355.597,287.736 356.183 C 289.311 356.513,291.920 357.063,293.532 357.404 C 309.360 360.752,327.989 361.581,337.200 359.346 C 343.477 357.823,349.740 352.938,353.294 346.794 C 355.708 342.620,355.691 342.833,355.840 316.200 C 356.015 285.074,355.577 280.774,351.339 272.000 C 347.055 263.133,344.552 261.347,336.133 261.154 C 330.377 261.022,327.931 260.665,313.400 257.837 C 304.293 256.064,299.224 254.892,293.600 253.258 C 281.740 249.813,278.407 250.435,271.398 257.400 C 267.070 261.701,265.568 263.074,262.133 265.872 C 259.985 267.621,258.353 268.989,257.446 269.800 C 252.979 273.794,249.203 276.381,248.329 276.049 C 227.302 268.055,197.092 243.768,184.334 224.602 C 183.747 223.721,181.272 220.058,178.834 216.463 C 176.395 212.868,174.400 209.840,174.400 209.735 C 174.400 209.630,173.815 208.702,173.100 207.672 C 172.385 206.642,171.620 205.490,171.400 205.110 C 170.269 203.161,166.108 196.395,165.181 195.000 C 164.596 194.120,163.557 192.384,162.870 191.141 L 161.622 188.883 167.949 182.341 C 171.430 178.744,175.880 174.120,177.839 172.067 C 179.797 170.014,183.223 166.461,185.452 164.172 C 187.681 161.882,189.832 159.332,190.233 158.505 C 192.324 154.185,190.884 142.605,186.165 125.800 C 185.329 122.821,183.622 115.065,182.952 111.200 C 182.013 105.775,181.975 105.603,180.939 102.027 C 179.085 95.629,176.373 92.022,170.304 87.880 C 166.031 84.964,165.870 84.941,147.200 84.584 C 140.490 84.456,134.460 84.279,133.800 84.190 C 131.120 83.829,106.309 83.713,102.414 84.043 " stroke="none" fill="#545454" fill-rule="evenodd"></path><path id="path1" d="" stroke="none" fill="#585454" fill-rule="evenodd"></path><path id="path2" d="" stroke="none" fill="#585454" fill-rule="evenodd"></path><path id="path3" d="" stroke="none" fill="#585454" fill-rule="evenodd"></path><path id="path4" d="" stroke="none" fill="#585454" fill-rule="evenodd"></path></g></svg>