<?xml version="1.0" standalone="no"?>
<!DOCTYPE svg PUBLIC "-//W3C//DTD SVG 20010904//EN"
 "http://www.w3.org/TR/2001/REC-SVG-20010904/DTD/svg10.dtd">
<svg version="1.0" xmlns="http://www.w3.org/2000/svg"
 width="1000.000000pt" height="1000.000000pt" viewBox="0 0 1000.000000 1000.000000"
 preserveAspectRatio="xMidYMid meet">

<g transform="translate(0.000000,1000.000000) scale(0.100000,-0.100000)"
fill="#000000" stroke="none">
<path d="M4415 9443 c-33 -2 -132 -10 -220 -19 -1450 -142 -2736 -948 -3481
-2180 -769 -1273 -839 -2859 -186 -4190 106 -214 153 -295 298 -514 562 -848
1389 -1475 2374 -1800 280 -93 612 -165 950 -207 184 -22 807 -26 995 -5 572
63 1077 204 1560 436 1185 569 2081 1638 2405 2871 18 66 38 130 46 143 11 17
762 933 832 1015 8 9 13 20 10 23 -3 3 -169 30 -369 60 -199 30 -364 55 -365
57 -1 1 -7 72 -13 157 -93 1242 -691 2368 -1676 3156 -876 699 -2008 1057
-3160 997z m775 -297 c805 -103 1520 -389 2132 -853 773 -585 1325 -1422 1548
-2347 57 -238 92 -459 106 -671 l7 -106 -24 5 c-21 5 -632 96 -643 96 -3 0 3
-19 13 -42 11 -24 134 -321 275 -660 l256 -617 -44 -148 c-193 -644 -535
-1224 -1011 -1712 -491 -503 -1061 -861 -1723 -1081 -1111 -370 -2324 -289
-3367 225 -1219 602 -2076 1741 -2299 3055 -43 252 -51 367 -51 700 0 336 10
451 61 730 104 565 318 1087 646 1571 154 229 295 397 512 615 268 267 486
441 787 625 584 358 1255 574 1964 632 125 11 734 -2 855 -17z"/>
<path d="M4600 8429 c-123 -13 -270 -45 -390 -85 -156 -52 -408 -180 -514
-260 -232 -176 -445 -425 -561 -655 -64 -126 -132 -355 -170 -570 -28 -156
-37 -373 -33 -773 l3 -396 -66 -20 c-36 -11 -99 -42 -140 -68 -132 -87 -222
-203 -275 -357 l-28 -80 -8 -1400 c-4 -805 -3 -1449 2 -1516 14 -190 81 -326
222 -454 80 -72 154 -107 309 -145 l124 -31 1680 -3 1680 -4 114 29 c168 42
230 74 325 172 106 107 163 214 187 347 7 35 12 593 14 1508 4 1645 10 1517
-77 1685 -73 142 -228 273 -368 313 l-55 15 0 547 c0 655 -6 706 -99 979 -65
193 -136 323 -282 519 -137 184 -266 302 -466 426 -178 111 -433 211 -654 258
-115 24 -343 34 -474 19z m245 -789 c262 -25 436 -105 629 -289 112 -108 194
-246 264 -449 l37 -107 3 -542 3 -543 -898 0 c-494 0 -958 3 -1032 7 l-134 6
6 456 c10 760 31 856 242 1105 144 169 445 333 653 355 111 12 107 12 227 1z
m7 -3251 c162 -34 306 -187 348 -368 18 -78 9 -224 -19 -285 -28 -65 -82 -130
-144 -174 l-50 -36 5 -225 c9 -359 -9 -426 -132 -500 -73 -44 -172 -16 -242
68 -49 57 -53 85 -53 384 l0 278 -49 36 c-117 85 -175 198 -176 339 0 68 33
193 66 250 64 110 175 199 284 228 68 18 95 19 162 5z"/>
</g>
</svg>
