<?xml version="1.0" standalone="no"?>
<!DOCTYPE svg PUBLIC "-//W3C//DTD SVG 20010904//EN"
 "http://www.w3.org/TR/2001/REC-SVG-20010904/DTD/svg10.dtd">
<svg version="1.0" xmlns="http://www.w3.org/2000/svg"
 width="1000.000000pt" height="1000.000000pt" viewBox="0 0 1000.000000 1000.000000"
 preserveAspectRatio="xMidYMid meet">

<g transform="translate(0.000000,1000.000000) scale(0.100000,-0.100000)"
fill="#000000" stroke="none">
<path d="M4730 8994 c-531 -49 -999 -256 -1363 -604 -484 -462 -716 -1138
-612 -1780 149 -913 900 -1621 1850 -1745 154 -20 426 -23 570 -5 506 60 968
282 1311 628 548 551 738 1335 499 2057 -250 760 -915 1305 -1740 1430 -106
16 -421 27 -515 19z"/>
<path d="M3145 4699 c-452 -43 -636 -112 -912 -343 -283 -236 -453 -498 -602
-930 -83 -242 -124 -475 -161 -926 -11 -140 -28 -329 -36 -420 -24 -266 -29
-547 -11 -665 41 -264 170 -527 344 -697 169 -165 334 -268 604 -374 l144 -57
2559 8 2560 7 129 79 c269 164 393 276 528 476 130 194 197 375 256 683 25
134 25 573 -1 780 -57 469 -170 982 -276 1267 -127 337 -383 671 -645 843
-161 104 -373 197 -565 247 -89 23 -109 24 -306 21 l-210 -3 -110 -91 c-223
-186 -333 -262 -489 -339 -341 -169 -616 -230 -1030 -230 -230 0 -244 1 -343
28 -128 34 -261 83 -417 154 -230 105 -343 177 -648 416 l-98 77 -87 -1 c-48
-1 -127 -6 -177 -10z"/>
</g>
</svg>
